<svg width="83" height="15" viewBox="0 0 83 15" fill="none" xmlns="http://www.w3.org/2000/svg">
<path fill-rule="evenodd" clip-rule="evenodd" d="M57.0966 0H75.4571C77.0033 0 77.564 0.16099 78.1293 0.463297C78.6945 0.765603 79.1382 1.20923 79.4404 1.77449C79.7428 2.33975 79.9038 2.90044 79.9038 4.44663V9.79967C79.9038 11.3459 79.7428 11.9065 79.4404 12.4718C79.1382 13.0371 78.6945 13.4807 78.1293 13.783C77.564 14.0853 77.0033 14.2463 75.4571 14.2463H57.0966C55.5504 14.2463 54.9897 14.0853 54.4245 13.783C53.8592 13.4807 53.4156 13.0371 53.1133 12.4718C52.8109 11.9065 52.65 11.3459 52.65 9.79967V4.44663C52.65 2.90044 52.8109 2.33975 53.1133 1.77449C53.4156 1.20923 53.8592 0.765603 54.4245 0.463297C54.9897 0.16099 55.5504 0 57.0966 0ZM57.0961 1.23866C55.8734 1.23866 55.4466 1.32108 55.0082 1.55554C54.6588 1.74239 54.392 2.00918 54.2052 2.35856C53.9707 2.79696 53.8883 3.2238 53.8883 4.44647V9.79952C53.8883 11.0222 53.9707 11.449 54.2052 11.8874C54.392 12.2368 54.6588 12.5036 55.0082 12.6905C55.4466 12.9249 55.8734 13.0073 57.0961 13.0073H75.4567C76.6793 13.0073 77.1062 12.9249 77.5446 12.6905C77.894 12.5036 78.1608 12.2368 78.3476 11.8874C78.582 11.449 78.6645 11.0222 78.6645 9.79952V4.44647C78.6645 3.2238 78.582 2.79696 78.3476 2.35856C78.1608 2.00918 77.894 1.74239 77.5446 1.55554C77.1062 1.32108 76.6793 1.23866 75.4567 1.23866H57.0961ZM81.1418 9.52651V4.57127C81.1418 4.57127 83 5.51701 83 7.04889C83 8.58076 81.1418 9.52651 81.1418 9.52651Z" fill="#58595B"/>
<rect x="54.6953" y="1.97262" width="16.4452" height="10.0499" rx="1.59056" fill="#58595B"/>
<path fill-rule="evenodd" clip-rule="evenodd" d="M17.5753 1.25143C17.4674 1.48885 17.4674 1.79375 17.4674 2.40357V11.9424C17.4674 12.5522 17.4674 12.8571 17.5753 13.0945C17.6958 13.3597 17.9083 13.5722 18.1735 13.6927C18.4109 13.8006 18.7158 13.8006 19.3256 13.8006C19.9354 13.8006 20.2403 13.8006 20.4777 13.6927C20.7429 13.5722 20.9554 13.3597 21.0759 13.0945C21.1838 12.8571 21.1838 12.5522 21.1838 11.9424V2.40357C21.1838 1.79375 21.1838 1.48885 21.0759 1.25143C20.9554 0.986253 20.7429 0.773731 20.4777 0.653236C20.2403 0.545358 19.9354 0.545358 19.3256 0.545358C18.7158 0.545358 18.4109 0.545358 18.1735 0.653236C17.9083 0.773731 17.6958 0.986253 17.5753 1.25143ZM11.6451 5.37737C11.6451 4.76755 11.6451 4.46264 11.753 4.22523C11.8735 3.96005 12.086 3.74752 12.3512 3.62703C12.5886 3.51915 12.8935 3.51915 13.5033 3.51915C14.1131 3.51915 14.418 3.51915 14.6555 3.62703C14.9206 3.74752 15.1332 3.96005 15.2537 4.22523C15.3615 4.46264 15.3615 4.76755 15.3615 5.37736V11.9431C15.3615 12.5529 15.3615 12.8578 15.2537 13.0952C15.1332 13.3604 14.9206 13.5729 14.6555 13.6934C14.418 13.8013 14.1131 13.8013 13.5033 13.8013C12.8935 13.8013 12.5886 13.8013 12.3512 13.6934C12.086 13.5729 11.8735 13.3604 11.753 13.0952C11.6451 12.8578 11.6451 12.5529 11.6451 11.9431V5.37737ZM6.05449 7.07401C5.94661 7.31142 5.94661 7.61633 5.94661 8.22615V11.9426C5.94661 12.5524 5.94661 12.8573 6.05449 13.0947C6.17499 13.3599 6.38751 13.5724 6.65269 13.6929C6.8901 13.8008 7.19501 13.8008 7.80483 13.8008C8.41464 13.8008 8.71955 13.8008 8.95696 13.6929C9.22214 13.5724 9.43467 13.3599 9.55516 13.0947C9.66304 12.8573 9.66304 12.5524 9.66304 11.9426V8.22615C9.66304 7.61633 9.66304 7.31142 9.55516 7.07401C9.43467 6.80883 9.22214 6.59631 8.95696 6.47581C8.71955 6.36793 8.41464 6.36793 7.80483 6.36793C7.19501 6.36793 6.8901 6.36793 6.65269 6.47581C6.38751 6.59631 6.17499 6.80883 6.05449 7.07401ZM0.107877 9.55215C0 9.78956 0 10.0945 0 10.7043V11.9431C0 12.5529 0 12.8578 0.107877 13.0952C0.228374 13.3604 0.440893 13.5729 0.706074 13.6934C0.943486 13.8013 1.24839 13.8013 1.85821 13.8013C2.46803 13.8013 2.77294 13.8013 3.01035 13.6934C3.27553 13.5729 3.48805 13.3604 3.60855 13.0952C3.71643 12.8578 3.71643 12.5529 3.71643 11.9431V10.7043C3.71643 10.0945 3.71643 9.78956 3.60855 9.55215C3.48805 9.28697 3.27553 9.07445 3.01035 8.95395C2.77294 8.84607 2.46803 8.84607 1.85821 8.84607C1.24839 8.84607 0.943486 8.84607 0.706074 8.95395C0.440893 9.07445 0.228374 9.28697 0.107877 9.55215Z" fill="#58595B"/>
<path fill-rule="evenodd" clip-rule="evenodd" d="M36.9175 3.14205C39.6855 3.14217 42.3477 4.20575 44.3538 6.11297C44.5048 6.26021 44.7463 6.25835 44.8951 6.1088L46.3391 4.65145C46.4144 4.5756 46.4564 4.47285 46.4558 4.36595C46.4552 4.25904 46.412 4.1568 46.3357 4.08183C41.0704 -0.964218 32.7637 -0.964218 27.4984 4.08183C27.4221 4.15674 27.3789 4.25896 27.3782 4.36586C27.3774 4.47277 27.4194 4.57554 27.4946 4.65145L28.9391 6.1088C29.0878 6.25858 29.3294 6.26044 29.4804 6.11297C31.4867 4.20562 34.1492 3.14204 36.9175 3.14205ZM36.917 7.88375C38.4378 7.88365 39.9044 8.44894 41.0317 9.46976C41.1842 9.61464 41.4244 9.6115 41.573 9.46269L43.0154 8.00533C43.0913 7.92889 43.1335 7.82519 43.1324 7.71743C43.1313 7.60967 43.0871 7.50685 43.0096 7.43197C39.5766 4.23863 34.2603 4.23863 30.8273 7.43197C30.7498 7.50685 30.7055 7.60972 30.7045 7.71752C30.7035 7.82531 30.7458 7.929 30.8219 8.00533L32.2639 9.46269C32.4125 9.6115 32.6527 9.61464 32.8052 9.46976C33.9317 8.44961 35.3971 7.88438 36.917 7.88375ZM39.6881 11.3625C39.7652 11.2868 39.8077 11.1826 39.8055 11.0745C39.8033 10.9665 39.7566 10.8641 39.6764 10.7916C38.083 9.4439 35.7494 9.4439 34.156 10.7916C34.0758 10.864 34.029 10.9664 34.0267 11.0744C34.0244 11.1825 34.0668 11.2867 34.1439 11.3625L36.6393 13.8804C36.7124 13.9544 36.8122 13.996 36.9162 13.996C37.0203 13.996 37.12 13.9544 37.1931 13.8804L39.6881 11.3625Z" fill="#58595B"/>
</svg>
